<svg viewBox="0 0 100 100" fill="none" xmlns="http://www.w3.org/2000/svg">
  <rect width="100" height="100" rx="28" fill="url(#navyGrad)" />
  <path d="M50 18L82 35V69L50 86L18 69V35L50 18Z" fill="url(#goldGrad)" fill-opacity="0.04" stroke="url(#orangeGrad)" stroke-width="1.5" stroke-opacity="0.3" stroke-linejoin="round" />
  <path d="M50 18V52L82 35M50 52L18 35" stroke="url(#orangeGrad)" stroke-width="1.2" stroke-opacity="0.2" />
  <path d="M28 36H72" stroke="url(#orangeGrad)" stroke-width="5.5" stroke-linecap="round" filter="url(#glowFilter)" />
  <path d="M50 36V66" stroke="url(#orangeGrad)" stroke-width="5.5" stroke-linecap="round" filter="url(#glowFilter)" />
  <path d="M28 36V48L40 54" stroke="#ff5c1a" stroke-width="1.5" stroke-dasharray="3 3" opacity="0.6" />
  <path d="M72 36V48L60 54" stroke="#ff5c1a" stroke-width="1.5" stroke-dasharray="3 3" opacity="0.6" />
  <path d="M50 66L40 71" stroke="#ff5c1a" stroke-width="1.5" stroke-dasharray="3 3" opacity="0.6" />
  <circle cx="28" cy="36" r="4.5" fill="#ffffff" stroke="#ff5c1a" stroke-width="2" />
  <circle cx="72" cy="36" r="4.5" fill="#ffffff" stroke="#ff5c1a" stroke-width="2" />
  <circle cx="50" cy="36" r="4" fill="#ffd043" />
  <circle cx="50" cy="66" r="4.5" fill="#ffffff" stroke="#ff5c1a" stroke-width="2" />
  <circle cx="40" cy="54" r="2.5" fill="#ff5c1a" />
  <circle cx="60" cy="54" r="2.5" fill="#ff5c1a" />
  <defs>
    <filter id="glowFilter" x="0" y="0" width="100" height="100" filterUnits="userSpaceOnUse">
      <feGaussianBlur stdDeviation="1.5" result="blur" />
      <feMerge>
        <feMergeNode in="blur" />
        <feMergeNode in="SourceGraphic" />
      </feMerge>
    </filter>
    <linearGradient id="navyGrad" x1="0" y1="0" x2="100" y2="100" gradientUnits="userSpaceOnUse">
      <stop stop-color="#0B1329" />
      <stop offset="0.6" stop-color="#0F172A" />
      <stop offset="1" stop-color="#1E293B" />
    </linearGradient>
    <linearGradient id="orangeGrad" x1="28" y1="36" x2="72" y2="66" gradientUnits="userSpaceOnUse">
      <stop stop-color="#FF7A00" />
      <stop offset="0.5" stop-color="#FF5C1A" />
      <stop offset="1" stop-color="#EA580C" />
    </linearGradient>
    <linearGradient id="goldGrad" x1="18" y1="35" x2="82" y2="69" gradientUnits="userSpaceOnUse">
      <stop stop-color="#FFB800" />
      <stop offset="1" stop-color="#FF5C1A" />
    </linearGradient>
  </defs>
</svg>